HIERARCHY
ROOT Hips
{
	OFFSET 0.00000 0.00000 0.00000
	CHANNELS 6 Xposition Yposition Zposition Zrotation Yrotation Xrotation 
	JOINT RightUpLegDummy
	{
		OFFSET 0 0 0
		CHANNELS 3 Zrotation Yrotation Xrotation
		JOINT RightUpLeg
		{
			OFFSET -3.52197 -3.41223 0.04002
			CHANNELS 3 Zrotation Yrotation Xrotation
			JOINT RightLeg
			{
				OFFSET 0.00006 -17.42390 1.60435
				CHANNELS 3 Zrotation Yrotation Xrotation
				JOINT RightFoot
				{
					OFFSET 0.06153 -16.50078 -1.63901
					CHANNELS 3 Zrotation Yrotation Xrotation
					JOINT RightToes
					{
						OFFSET 0.00298 -1.73825 3.34613
						CHANNELS 3 Zrotation Yrotation Xrotation
						End Site
						{
							OFFSET 0.00480 -0.05416 3.85043
						}
					}
				}
			}
		}
	}
	JOINT SpineDummy
	{
		OFFSET 0 0 0
		CHANNELS 3 Zrotation Yrotation Xrotation
		JOINT Spine
		{
			OFFSET 0.00000 4.68130 0.00000
			CHANNELS 3 Zrotation Yrotation Xrotation
			JOINT Spine1
			{
				OFFSET -0.00000 10.10138 0.05002
				CHANNELS 3 Zrotation Yrotation Xrotation
				JOINT HEadDummy
				{
					OFFSET 0 0 0
					CHANNELS 3 Zrotation Yrotation Xrotation
					JOINT Head
					{
						OFFSET -0.00000 3.43865 0.00438
						CHANNELS 3 Zrotation Yrotation Xrotation
						End Site
						{
							OFFSET -0.11417 5.02924 0.98962
						}
					}
				}
				JOINT LeftShoulder1Dummy
				{
					OFFSET 0 0 0
					CHANNELS 3 Zrotation Yrotation Xrotation
					JOINT LeftShoulder1
					{
						OFFSET 3.53937 -0.14262 -0.08662
						CHANNELS 3 Zrotation Yrotation Xrotation
						JOINT LeftArm
						{
							OFFSET 4.04833 -0.00133 0.12681
							CHANNELS 3 Zrotation Yrotation Xrotation
							JOINT LeftForeArm
							{
								OFFSET 10.33880 -0.01036 -0.55515
								CHANNELS 3 Zrotation Yrotation Xrotation
								JOINT LeftHand
								{
									OFFSET 8.69677 0.07543 0.40060
									CHANNELS 3 Zrotation Yrotation Xrotation
									End Site
									{
										OFFSET 5.28377 -0.21905 0.59205
									}
								}
							}
						}
					}
				}
				JOINT RightShoulderDummy
				{
					OFFSET 0 0 0
					CHANNELS 3 Zrotation Yrotation Xrotation
					JOINT RightShoulder
					{
						OFFSET -3.53937 -0.14262 -0.08660
						CHANNELS 3 Zrotation Yrotation Xrotation
						JOINT RightArm
						{
							OFFSET -4.04833 -0.00133 0.12683
							CHANNELS 3 Zrotation Yrotation Xrotation
							JOINT RightForeArm
							{
								OFFSET -10.37987 -0.01039 -0.55511
								CHANNELS 3 Zrotation Yrotation Xrotation
								JOINT RightHand
								{
									OFFSET -8.67398 0.07538 0.40058
									CHANNELS 3 Zrotation Yrotation Xrotation
									End Site
									{
										OFFSET -5.24810 -0.21916 0.59204
									}
								}
							}
						}
					}
				}
			}
		}
	}
	JOINT LeftUpLegDummy
	{
		OFFSET 0 0 0
		CHANNELS 3 Zrotation Yrotation Xrotation
		JOINT LeftUpLeg
		{
			OFFSET 3.52197 -3.41223 0.04002
			CHANNELS 3 Zrotation Yrotation Xrotation
			JOINT LeftLeg
			{
				OFFSET -0.00012 -17.42399 1.60337
				CHANNELS 3 Zrotation Yrotation Xrotation
				JOINT LeftFoot
				{
					OFFSET -0.09972 -16.50070 -1.63802
					CHANNELS 3 Zrotation Yrotation Xrotation
					JOINT LeftToes
					{
						OFFSET -0.01575 -1.73823 3.34611
						CHANNELS 3 Zrotation Yrotation Xrotation
						End Site
						{
							OFFSET 0.03150 -0.01868 3.85031
						}
					}
				}
			}
		}
	}
}
MOTION
Frames: 16
Frame Time: 0.033333
-22.9484 38.3696 24.5464 3.5539 -50.3614 -8.8108 0.0000 0.0000 0.0000 -5.2821 -5.4517 10.4788 1.3373 1.8219 35.3150 7.3133 -0.3788 -5.8369 0.0000 -0.0000 0.0000 0.0000 0.0000 0.0000 -2.7843 2.7358 7.8067 1.7720 2.4962 1.4330 -0.0000 0.0000 -0.0000 4.2706 -2.5490 -0.1535 -0.0000 0.0000 -0.0000 -34.0877 -2.6518 2.4695 -41.8304 -8.9402 -24.6074 -7.5373 5.2077 46.3824 11.4206 -4.7265 -0.9570 -0.0000 0.0000 -0.0000 35.5530 5.3105 3.6656 38.3014 4.4702 -17.8373 10.4436 2.4044 19.1221 -12.1394 1.7422 -0.7318 0.0000 0.0000 0.0000 -2.4307 -0.1814 -15.7663 1.9579 10.1325 14.6925 -0.8685 0.0940 3.8040 0.0000 0.0000 -0.0000
-23.6481 38.2809 25.5024 4.6138 -49.9668 -10.0813 0.0000 0.0000 0.0000 -6.9032 -6.1530 6.9174 0.3809 0.5747 44.1423 8.9818 -1.1123 3.0249 0.0000 -0.0000 0.0000 0.0000 0.0000 0.0000 -3.5943 2.4987 8.6774 1.8602 2.2325 0.4315 -0.0000 0.0000 -0.0000 3.9976 -2.5063 0.7217 -0.0000 0.0000 -0.0000 -33.7813 -2.6303 2.4421 -42.0658 -9.5894 -23.6146 -8.0781 5.2195 45.7622 11.1503 -4.7740 -0.9374 -0.0000 0.0000 -0.0000 35.1943 5.2575 3.6115 39.0956 2.6008 -19.2799 9.9853 1.0135 19.4777 -11.9327 1.6533 -0.7104 0.0000 0.0000 0.0000 -3.5149 0.3878 -14.9959 1.4664 9.3012 17.9578 0.4706 -0.0567 1.2527 0.0000 0.0000 -0.0000
-24.2733 38.2301 26.3940 4.9181 -50.2113 -11.0607 0.0000 0.0000 0.0000 -7.2175 -5.5373 2.8800 -2.7692 -1.5275 52.2226 8.4320 -1.4961 9.2964 0.0000 -0.0000 0.0000 0.0000 0.0000 0.0000 -3.3648 2.3302 9.9795 1.5186 2.1071 -0.1926 -0.0000 0.0000 -0.0000 3.5129 -2.0360 0.6797 -0.0000 0.0000 -0.0000 -33.8404 -2.6128 2.4371 -41.8316 -10.7741 -22.2271 -8.8601 5.2389 44.7453 11.1959 -4.8178 -0.9454 -0.0000 0.0000 -0.0000 35.1416 5.2653 3.6100 39.3230 1.6351 -19.9005 9.8348 -0.1510 19.6670 -11.4681 1.8088 -0.6962 0.0000 0.0000 0.0000 -4.0745 0.5993 -13.7438 1.5970 9.2679 20.7447 1.8660 -0.1502 -1.6529 0.0000 0.0000 -0.0000
-24.9424 38.2792 27.2803 4.5456 -50.4782 -11.5261 0.0000 0.0000 0.0000 -6.4634 -4.5985 -0.9717 -7.4901 -3.5298 58.2083 5.8789 -1.0879 10.1458 0.0000 -0.0000 0.0000 0.0000 0.0000 0.0000 -2.8433 2.0022 10.8831 1.3903 1.7790 -0.1981 -0.0000 0.0000 -0.0000 2.9314 -1.1625 0.2120 -0.0000 0.0000 -0.0000 -33.9771 -2.6067 2.4357 -41.5241 -12.3188 -20.9063 -9.5604 5.2628 43.5462 11.9766 -4.8692 -1.0198 -0.0000 0.0000 -0.0000 35.3650 5.3136 3.6499 39.0556 1.3917 -19.7193 9.9582 -0.9791 20.2365 -11.0583 1.9411 -0.6823 0.0000 0.0000 0.0000 -4.2236 0.6095 -11.8087 1.9823 9.4162 22.2979 2.1594 -0.1107 -4.2101 0.0000 0.0000 -0.0000
-25.6890 38.3914 28.1692 3.6289 -50.1110 -11.3855 0.0000 0.0000 0.0000 -5.0981 -4.1036 -4.3837 -11.6122 -4.8466 61.3667 3.0676 -0.4785 7.3879 0.0000 -0.0000 0.0000 0.0000 0.0000 0.0000 -2.5713 1.3689 11.2318 1.8647 1.0254 0.0600 -0.0000 0.0000 -0.0000 2.3842 -0.1948 0.0143 -0.0000 0.0000 -0.0000 -33.8260 -2.6305 2.4359 -41.5895 -14.0433 -19.8745 -9.9930 5.2862 42.4355 13.2016 -4.8678 -1.1288 -0.0000 0.0000 -0.0000 35.4568 5.3308 3.6653 38.9497 1.3418 -19.3111 10.0914 -1.1835 21.1845 -11.0130 1.8863 -0.6746 0.0000 0.0000 0.0000 -4.1688 0.7481 -9.5097 2.1405 8.9192 22.9063 2.2982 -0.0628 -6.2871 0.0000 0.0000 -0.0000
-26.4665 38.4972 29.0363 2.5000 -49.2671 -10.9814 0.0000 0.0000 0.0000 -3.5806 -3.7684 -7.3516 -12.9578 -5.3590 61.6183 1.4335 -0.1799 4.4354 0.0000 -0.0000 0.0000 0.0000 0.0000 0.0000 -2.6206 0.6122 11.4397 2.8528 0.0350 0.1992 -0.0000 0.0000 -0.0000 1.9727 0.5824 0.2516 -0.0000 0.0000 -0.0000 -33.5082 -2.6665 2.4365 -41.9008 -15.9179 -19.0699 -10.2193 5.3063 41.5170 14.0838 -4.7843 -1.1981 -0.0000 0.0000 -0.0000 35.3134 5.3091 3.6434 39.1869 1.1402 -19.0767 10.1167 -0.6660 21.6731 -11.2577 1.8093 -0.6832 0.0000 0.0000 0.0000 -4.0121 0.9154 -7.2534 2.1400 8.0167 23.3488 3.2443 -0.0451 -8.0192 0.0000 0.0000 -0.0000
-27.2437 38.5791 29.8782 1.5083 -48.5329 -10.6229 0.0000 0.0000 0.0000 -2.1699 -3.0565 -9.9837 -11.7960 -5.3945 59.3772 0.3231 -0.0303 2.3470 0.0000 -0.0000 0.0000 0.0000 0.0000 0.0000 -2.8035 0.0004 11.6639 3.9817 -0.8460 0.2095 -0.0000 0.0000 -0.0000 1.7401 1.1300 0.6050 -0.0000 0.0000 -0.0000 -33.3516 -2.6822 2.4360 -42.0329 -17.9591 -18.3276 -10.4100 5.3203 40.8474 14.2084 -4.7253 -1.2025 -0.0000 0.0000 -0.0000 35.1761 5.2932 3.6245 39.4354 0.8573 -18.9299 10.1442 0.2831 21.1847 -11.5024 1.8977 -0.7065 0.0000 0.0000 0.0000 -3.7837 1.1461 -5.0993 2.0972 7.1936 23.7577 4.2974 -0.0042 -9.6918 0.0000 0.0000 -0.0000
-28.0207 38.6387 30.7009 0.7210 -48.1171 -10.2597 0.0000 0.0000 0.0000 -0.9865 -2.1090 -12.2992 -10.1158 -5.5575 55.0607 -0.3308 0.0354 0.1362 0.0000 -0.0000 0.0000 0.0000 0.0000 0.0000 -2.8729 -0.4178 11.7359 4.8660 -1.4848 0.2474 -0.0000 0.0000 -0.0000 1.6615 1.5181 0.7703 -0.0000 0.0000 -0.0000 -33.3717 -2.6746 2.4336 -41.8624 -20.1086 -17.5099 -10.6657 5.3239 40.5672 13.9127 -4.7720 -1.1816 -0.0000 0.0000 -0.0000 35.1963 5.3015 3.6298 39.5615 0.7025 -18.7012 10.2374 1.2827 20.2053 -11.6023 2.0075 -0.7230 0.0000 0.0000 0.0000 -3.4055 1.4969 -3.0006 1.8867 6.5729 23.9128 4.5872 0.0737 -11.4790 0.0000 0.0000 -0.0000
-28.8055 38.6911 31.5062 0.0478 -47.8479 -9.8203 0.0000 0.0000 0.0000 -0.0855 -1.4558 -14.1015 -8.9313 -6.2459 48.8257 0.0868 -0.0136 -1.9075 0.0000 -0.0000 0.0000 0.0000 0.0000 0.0000 -2.7175 -0.7396 11.5810 5.3512 -1.9457 0.4130 -0.0000 0.0000 -0.0000 1.6726 1.7444 0.6856 -0.0000 0.0000 -0.0000 -33.3731 -2.6617 2.4272 -41.6144 -22.2264 -16.6333 -10.9384 5.3170 40.7188 13.7923 -4.8554 -1.1803 -0.0000 0.0000 -0.0000 35.3228 5.3186 3.6482 39.7084 0.7665 -18.4336 10.3283 2.1127 19.4782 -11.6004 1.9304 -0.7158 0.0000 0.0000 0.0000 -2.9097 1.9310 -0.8428 1.5057 6.0063 23.6139 4.5722 0.1505 -13.1267 0.0000 0.0000 -0.0000
-29.5924 38.7624 32.2889 -0.4528 -47.6482 -9.4405 0.0000 0.0000 0.0000 0.5342 -1.1634 -15.1216 -7.8587 -7.3258 40.7336 0.8880 -0.0786 -2.5177 0.0000 -0.0000 0.0000 0.0000 0.0000 0.0000 -2.5011 -0.9744 11.2977 5.5923 -2.2703 0.7057 -0.0000 0.0000 -0.0000 1.7054 1.8152 0.4369 -0.0000 0.0000 -0.0000 -33.2894 -2.6573 2.4222 -41.5526 -24.1106 -15.8730 -11.1125 5.3076 41.0198 14.0555 -4.9217 -1.2114 -0.0000 0.0000 -0.0000 35.4703 5.3371 3.6691 39.8914 1.0400 -18.2045 10.3781 2.6335 19.2202 -11.5602 1.8253 -0.7035 0.0000 0.0000 0.0000 -2.5372 2.2440 1.5013 1.2437 5.6494 22.7085 4.9575 0.2140 -14.2964 0.0000 0.0000 -0.0000
-30.3719 38.8473 33.0439 -0.5981 -47.5893 -9.2505 0.0000 0.0000 0.0000 0.8496 -0.8229 -15.3158 -6.5032 -8.4842 31.1237 1.3324 -0.1169 -1.9400 0.0000 -0.0000 0.0000 0.0000 0.0000 0.0000 -2.4649 -1.0551 10.9452 5.8009 -2.4320 1.0337 -0.0000 0.0000 -0.0000 1.7236 1.8518 0.1542 -0.0000 0.0000 -0.0000 -33.1656 -2.6865 2.4258 -41.7959 -25.5355 -15.2980 -11.1887 5.3077 40.9775 14.4314 -5.0617 -1.2616 -0.0000 0.0000 -0.0000 35.5661 5.3543 3.6848 40.0410 1.4429 -17.9738 10.4263 2.8049 19.2802 -11.5253 2.0028 -0.7176 0.0000 0.0000 0.0000 -2.5021 2.3206 3.9921 1.2583 5.7530 21.1950 5.4858 0.2694 -15.0749 0.0000 0.0000 -0.0000
-31.1427 38.9351 33.7660 -0.3696 -47.6159 -9.2180 0.0000 0.0000 0.0000 0.8866 -0.2855 -14.9166 -4.9268 -9.5984 20.7486 1.8501 -0.1663 -1.3959 0.0000 -0.0000 0.0000 0.0000 0.0000 0.0000 -2.6188 -1.0038 10.5511 5.9808 -2.4431 1.2830 -0.0000 0.0000 -0.0000 1.7342 1.9621 -0.0609 -0.0000 0.0000 -0.0000 -33.0714 -2.7710 2.4529 -42.2158 -26.3823 -14.7224 -11.3271 5.3224 40.2881 14.5635 -5.2987 -1.3017 -0.0000 0.0000 -0.0000 35.5745 5.3611 3.6894 40.2193 1.8005 -17.7104 10.4946 2.8499 19.4583 -11.5555 2.3632 -0.7528 0.0000 0.0000 0.0000 -2.7030 2.3261 6.5979 1.2434 6.0991 19.0414 5.7657 0.3048 -15.5391 0.0000 0.0000 -0.0000
-31.9071 39.0330 34.4449 0.0280 -47.5345 -9.2514 0.0000 0.0000 0.0000 0.8255 0.0663 -14.1837 -3.2006 -10.3480 10.6291 2.6360 -0.2344 -1.4160 0.0000 -0.0000 0.0000 0.0000 0.0000 0.0000 -2.8149 -0.9374 10.2175 6.0678 -2.3977 1.4175 -0.0000 0.0000 -0.0000 1.7502 2.1170 -0.2117 -0.0000 0.0000 -0.0000 -33.1767 -2.8775 2.5013 -42.4735 -26.7328 -14.0073 -11.6312 5.3438 39.1967 14.3829 -5.4532 -1.3030 -0.0000 0.0000 -0.0000 35.5711 5.3619 3.6935 40.4386 1.9776 -17.4793 10.5583 3.0291 19.5099 -11.6605 2.4585 -0.7686 0.0000 0.0000 0.0000 -2.8191 2.5412 9.2839 0.8402 6.1127 16.4355 6.0664 0.3145 -15.5159 0.0000 0.0000 -0.0000
-32.6938 39.0885 35.1011 0.4337 -47.2479 -9.2976 0.0000 0.0000 0.0000 0.7551 0.0487 -13.4471 -1.5284 -10.0662 2.3678 3.6272 -0.2959 -2.2333 0.0000 -0.0000 0.0000 0.0000 0.0000 0.0000 -3.0329 -0.9230 9.8922 6.1618 -2.3968 1.5388 -0.0000 0.0000 -0.0000 1.7433 2.2800 -0.3581 -0.0000 0.0000 -0.0000 -33.5814 -2.9329 2.5492 -42.4474 -26.7502 -13.3331 -11.9733 5.3572 38.4093 14.1141 -5.4350 -1.2754 -0.0000 0.0000 -0.0000 35.6264 5.3597 3.6957 40.5503 2.0296 -17.3535 10.6015 3.2259 19.3470 -11.7654 2.1787 -0.7495 0.0000 0.0000 0.0000 -2.6961 3.1299 11.6136 0.2261 5.4672 14.5547 6.3751 0.3220 -15.4499 0.0000 0.0000 -0.0000
-33.5440 39.0294 35.7785 0.8825 -46.7960 -9.3652 0.0000 0.0000 0.0000 0.5448 0.0960 -13.2261 -0.5687 -8.9087 -1.9330 5.0347 -0.3369 -4.0081 0.0000 -0.0000 0.0000 0.0000 0.0000 0.0000 -3.3730 -0.9390 9.3805 6.3862 -2.4632 1.7297 -0.0000 0.0000 -0.0000 1.6701 2.5146 -0.4687 -0.0000 0.0000 -0.0000 -34.0173 -2.9116 2.5690 -42.5073 -26.4920 -12.9655 -12.1498 5.3538 38.4559 13.9492 -5.4349 -1.2598 -0.0000 0.0000 -0.0000 35.6483 5.3545 3.6924 40.5342 2.0668 -17.3705 10.6119 3.1176 19.2493 -11.7862 1.9391 -0.7284 0.0000 0.0000 0.0000 -2.4323 4.1542 13.1742 -0.1818 4.1695 14.4506 5.9491 0.3402 -16.0472 0.0000 0.0000 -0.0000
-34.4487 38.9037 36.4712 1.3876 -46.1752 -9.5016 0.0000 0.0000 0.0000 0.3731 0.0316 -13.3609 -0.5534 -7.8863 -2.2534 5.8441 -0.3343 -5.2382 0.0000 -0.0000 0.0000 0.0000 0.0000 0.0000 -3.7849 -0.9848 8.7955 6.6456 -2.5517 1.8439 -0.0000 0.0000 -0.0000 1.5418 2.8551 -0.4267 -0.0000 0.0000 -0.0000 -34.1352 -2.8535 2.5534 -42.9572 -25.9440 -12.9648 -12.1230 5.3366 39.2334 13.8571 -5.6049 -1.2701 -0.0000 0.0000 -0.0000 35.5501 5.3422 3.6785 40.5655 2.0419 -17.5765 10.5576 2.6966 19.4618 -11.7211 2.0332 -0.7330 0.0000 0.0000 0.0000 -2.0196 5.6839 14.3140 -0.4042 2.0455 15.4523 4.6025 0.3189 -16.7629 0.0000 0.0000 -0.0000
